<svg width="229" height="80" viewBox="0 0 229 80" fill="none" xmlns="http://www.w3.org/2000/svg">
<rect x="0.979248" width="64" height="64" rx="12" fill="url(#paint0_linear_8190_3775)"/>
<path d="M20.3668 48.1067C18.7046 46.4445 18.7046 43.7495 20.3668 42.0872L27.4262 35.0279L32.5303 40.132C33.0358 40.6376 33.0358 41.4572 32.5303 41.9628L26.3863 48.1067C24.7241 49.769 22.029 49.769 20.3668 48.1067Z" fill="white"/>
<g filter="url(#filter0_f_8190_3775)">
<path fill-rule="evenodd" clip-rule="evenodd" d="M27.1549 31.8434C28.5364 30.4611 30.7765 30.461 32.1581 31.8433L34.055 33.7409C34.8683 34.5547 35.2029 35.666 35.0587 36.7246C34.9786 37.506 34.6394 38.2658 34.0411 38.8645L30.3263 42.5813C29.8362 43.0717 29.2379 43.3881 28.6083 43.5306C29.5031 41.3028 29.0484 38.659 27.2443 36.8541L26.6442 36.2538L26.6634 36.2346C25.7995 34.8667 25.9633 33.0357 27.1549 31.8434Z" fill="url(#paint1_linear_8190_3775)" fill-opacity="0.4"/>
</g>
<path fill-rule="evenodd" clip-rule="evenodd" d="M11.4038 14.1302C13.066 12.468 15.761 12.468 17.4233 14.1302L35.7326 32.4395C36.711 33.418 37.1135 34.7542 36.9401 36.0271C36.8439 36.9668 36.4358 37.8807 35.7157 38.6007L31.2463 43.0702C30.9616 43.3548 30.6466 43.5908 30.3117 43.7779C31.3905 42.0999 31.1958 39.8404 29.7276 38.3722L26.7729 35.4176L26.7223 35.4682L11.4038 20.1497C9.74155 18.4875 9.74154 15.7925 11.4038 14.1302Z" fill="white"/>
<path d="M39.1889 48.1067C37.5267 46.4445 37.5267 43.7495 39.1889 42.0872L46.2483 35.0279L51.3524 40.132C51.858 40.6376 51.858 41.4572 51.3524 41.9628L45.2085 48.1067C43.5462 49.769 40.8512 49.769 39.1889 48.1067Z" fill="white"/>
<g filter="url(#filter1_f_8190_3775)">
<path fill-rule="evenodd" clip-rule="evenodd" d="M45.977 31.8434C47.3586 30.4611 49.5986 30.461 50.9802 31.8433L52.8771 33.7409C53.6905 34.5546 54.0251 35.666 53.8808 36.7246C53.8008 37.5059 53.4616 38.2658 52.8632 38.8645L49.1485 42.5813C48.6583 43.0717 48.0601 43.3881 47.4305 43.5306C48.3253 41.3028 47.8706 38.659 46.0664 36.8541L45.4664 36.2538L45.4856 36.2346C44.6217 34.8667 44.7855 33.0357 45.977 31.8434Z" fill="url(#paint2_linear_8190_3775)" fill-opacity="0.4"/>
</g>
<path fill-rule="evenodd" clip-rule="evenodd" d="M30.2259 14.1302C31.8882 12.468 34.5832 12.468 36.2454 14.1302L54.5547 32.4395C55.5332 33.418 55.9357 34.7542 55.7623 36.0271C55.666 36.9668 55.2579 37.8807 54.5378 38.6007L50.0684 43.0702C49.7837 43.3548 49.4687 43.5908 49.1339 43.7779C50.2126 42.0999 50.0179 39.8404 48.5497 38.3722L45.5951 35.4176L45.5444 35.4682L30.2259 20.1497C28.5637 18.4875 28.5637 15.7925 30.2259 14.1302Z" fill="white"/>
<g filter="url(#filter2_dd_8190_3775)">
<path d="M74.8168 20.5536C74.8168 18.576 75.2584 16.8096 76.1416 15.2544C77.044 13.68 78.2632 12.4608 79.7992 11.5968C81.3544 10.7136 83.092 10.272 85.012 10.272C87.2584 10.272 89.2264 10.848 90.916 12C92.6056 13.152 93.7864 14.7456 94.4584 16.7808H89.8216C89.3608 15.8208 88.708 15.1008 87.8632 14.6208C87.0376 14.1408 86.0776 13.9008 84.9832 13.9008C83.812 13.9008 82.7656 14.1792 81.844 14.736C80.9416 15.2736 80.2312 16.0416 79.7128 17.04C79.2136 18.0384 78.964 19.2096 78.964 20.5536C78.964 21.8784 79.2136 23.0496 79.7128 24.0672C80.2312 25.0656 80.9416 25.8432 81.844 26.4C82.7656 26.9376 83.812 27.2064 84.9832 27.2064C86.0776 27.2064 87.0376 26.9664 87.8632 26.4864C88.708 25.9872 89.3608 25.2576 89.8216 24.2976H94.4584C93.7864 26.352 92.6056 27.9552 90.916 29.1072C89.2456 30.24 87.2776 30.8064 85.012 30.8064C83.092 30.8064 81.3544 30.3744 79.7992 29.5104C78.2632 28.6272 77.044 27.408 76.1416 25.8528C75.2584 24.2976 74.8168 22.5312 74.8168 20.5536Z" fill="url(#paint3_linear_8190_3775)"/>
<path d="M99.3711 12.7776C98.6607 12.7776 98.0655 12.5568 97.5855 12.1152C97.1247 11.6544 96.8943 11.088 96.8943 10.416C96.8943 9.74401 97.1247 9.18721 97.5855 8.74561C98.0655 8.28481 98.6607 8.05441 99.3711 8.05441C100.081 8.05441 100.667 8.28481 101.128 8.74561C101.608 9.18721 101.848 9.74401 101.848 10.416C101.848 11.088 101.608 11.6544 101.128 12.1152C100.667 12.5568 100.081 12.7776 99.3711 12.7776ZM101.358 14.6784V30.6336H97.3263V14.6784H101.358Z" fill="url(#paint4_linear_8190_3775)"/>
<path d="M109.46 17.9904V25.7088C109.46 26.2464 109.585 26.64 109.835 26.8896C110.103 27.12 110.545 27.2352 111.159 27.2352H113.031V30.6336H110.497C107.099 30.6336 105.399 28.9824 105.399 25.68V17.9904H103.499V14.6784H105.399V10.7328H109.46V14.6784H113.031V17.9904H109.46Z" fill="url(#paint5_linear_8190_3775)"/>
<path d="M130.62 14.6784L120.741 38.1792H116.45L119.906 30.2304L113.512 14.6784H118.034L122.152 25.824L126.328 14.6784H130.62Z" fill="url(#paint6_linear_8190_3775)"/>
<path d="M152.184 10.5312V13.7856H146.827V30.6336H142.795V13.7856H137.438V10.5312H152.184Z" fill="url(#paint7_linear_8190_3775)"/>
<path d="M158.581 17.1552C159.1 16.3104 159.772 15.648 160.597 15.168C161.442 14.688 162.402 14.448 163.477 14.448V18.6816H162.412C161.145 18.6816 160.185 18.9792 159.532 19.5744C158.898 20.1696 158.581 21.2064 158.581 22.6848V30.6336H154.549V14.6784H158.581V17.1552Z" fill="url(#paint8_linear_8190_3775)"/>
<path d="M164.58 22.5984C164.58 20.9856 164.897 19.5552 165.531 18.3072C166.184 17.0592 167.057 16.0992 168.152 15.4272C169.265 14.7552 170.504 14.4192 171.867 14.4192C173.057 14.4192 174.094 14.6592 174.977 15.1392C175.88 15.6192 176.6 16.224 177.137 16.9536V14.6784H181.198V30.6336H177.137V28.3008C176.619 29.0496 175.899 29.6736 174.977 30.1728C174.075 30.6528 173.028 30.8928 171.838 30.8928C170.494 30.8928 169.265 30.5472 168.152 29.856C167.057 29.1648 166.184 28.1952 165.531 26.9472C164.897 25.68 164.58 24.2304 164.58 22.5984ZM177.137 22.656C177.137 21.6768 176.945 20.8416 176.561 20.1504C176.177 19.44 175.659 18.9024 175.006 18.5376C174.353 18.1536 173.652 17.9616 172.904 17.9616C172.155 17.9616 171.464 18.144 170.83 18.5088C170.196 18.8736 169.678 19.4112 169.275 20.1216C168.891 20.8128 168.699 21.6384 168.699 22.5984C168.699 23.5584 168.891 24.4032 169.275 25.1328C169.678 25.8432 170.196 26.3904 170.83 26.7744C171.483 27.1584 172.174 27.3504 172.904 27.3504C173.652 27.3504 174.353 27.168 175.006 26.8032C175.659 26.4192 176.177 25.8816 176.561 25.1904C176.945 24.48 177.137 23.6352 177.137 22.656Z" fill="url(#paint9_linear_8190_3775)"/>
<path d="M193.402 14.448C195.302 14.448 196.838 15.0528 198.009 16.2624C199.181 17.4528 199.766 19.1232 199.766 21.2736V30.6336H195.734V21.8208C195.734 20.5536 195.418 19.584 194.784 18.912C194.15 18.2208 193.286 17.8752 192.192 17.8752C191.078 17.8752 190.195 18.2208 189.542 18.912C188.909 19.584 188.592 20.5536 188.592 21.8208V30.6336H184.56V14.6784H188.592V16.6656C189.13 15.9744 189.811 15.4368 190.637 15.0528C191.481 14.6496 192.403 14.448 193.402 14.448Z" fill="url(#paint10_linear_8190_3775)"/>
<path d="M209.13 30.8928C207.825 30.8928 206.653 30.6624 205.617 30.2016C204.58 29.7216 203.754 29.0784 203.14 28.272C202.545 27.4656 202.218 26.5728 202.161 25.5936H206.221C206.298 26.208 206.596 26.7168 207.114 27.12C207.652 27.5232 208.314 27.7248 209.101 27.7248C209.869 27.7248 210.465 27.5712 210.887 27.264C211.329 26.9568 211.549 26.5632 211.549 26.0832C211.549 25.5648 211.281 25.1808 210.743 24.9312C210.225 24.6624 209.389 24.3744 208.237 24.0672C207.047 23.7792 206.068 23.4816 205.3 23.1744C204.551 22.8672 203.898 22.3968 203.341 21.7632C202.804 21.1296 202.535 20.2752 202.535 19.2C202.535 18.3168 202.785 17.5104 203.284 16.7808C203.802 16.0512 204.532 15.4752 205.473 15.0528C206.433 14.6304 207.556 14.4192 208.842 14.4192C210.743 14.4192 212.26 14.8992 213.393 15.8592C214.525 16.8 215.149 18.0768 215.265 19.6896H211.405C211.348 19.056 211.079 18.5568 210.599 18.192C210.138 17.808 209.514 17.616 208.727 17.616C207.997 17.616 207.431 17.7504 207.028 18.0192C206.644 18.288 206.452 18.6624 206.452 19.1424C206.452 19.68 206.721 20.0928 207.258 20.3808C207.796 20.6496 208.631 20.928 209.764 21.216C210.916 21.504 211.866 21.8016 212.615 22.1088C213.364 22.416 214.007 22.896 214.545 23.5488C215.101 24.1824 215.389 25.0272 215.409 26.0832C215.409 27.0048 215.149 27.8304 214.631 28.56C214.132 29.2896 213.402 29.8656 212.442 30.288C211.501 30.6912 210.397 30.8928 209.13 30.8928Z" fill="url(#paint11_linear_8190_3775)"/>
<path d="M78.992 45.2272V46.056H75.5984V48.688H78.3536V49.5168H75.5984V53.0336H74.5792V45.2272H78.992Z" fill="url(#paint12_linear_8190_3775)"/>
<path d="M86.7862 46.896V53.0336H85.767V52.1264C85.5728 52.44 85.3003 52.6864 84.9494 52.8656C84.6059 53.0373 84.2251 53.1232 83.807 53.1232C83.3291 53.1232 82.8998 53.0261 82.519 52.832C82.1382 52.6304 81.8358 52.3318 81.6118 51.936C81.3952 51.5403 81.287 51.0587 81.287 50.4912V46.896H82.295V50.3568C82.295 50.9616 82.448 51.4283 82.7542 51.7568C83.0603 52.0779 83.4784 52.2384 84.0086 52.2384C84.5536 52.2384 84.983 52.0704 85.2966 51.7344C85.6102 51.3984 85.767 50.9094 85.767 50.2672V46.896H86.7862Z" fill="url(#paint13_linear_8190_3775)"/>
<path d="M90.8702 47.736V51.3536C90.8702 51.6523 90.9337 51.8651 91.0606 51.992C91.1876 52.1115 91.4078 52.1712 91.7214 52.1712H92.4718V53.0336H91.5534C90.986 53.0336 90.5604 52.903 90.2766 52.6416C89.9929 52.3803 89.851 51.951 89.851 51.3536V47.736H89.0558V46.896H89.851V45.3504H90.8702V46.896H92.4718V47.736H90.8702Z" fill="url(#paint14_linear_8190_3775)"/>
<path d="M100.27 46.896V53.0336H99.2507V52.1264C99.0566 52.44 98.7841 52.6864 98.4331 52.8656C98.0897 53.0373 97.7089 53.1232 97.2907 53.1232C96.8129 53.1232 96.3835 53.0261 96.0027 52.832C95.6219 52.6304 95.3195 52.3318 95.0955 51.936C94.879 51.5403 94.7707 51.0587 94.7707 50.4912V46.896H95.7787V50.3568C95.7787 50.9616 95.9318 51.4283 96.2379 51.7568C96.5441 52.0779 96.9622 52.2384 97.4923 52.2384C98.0374 52.2384 98.4667 52.0704 98.7803 51.7344C99.0939 51.3984 99.2507 50.9094 99.2507 50.2672V46.896H100.27Z" fill="url(#paint15_linear_8190_3775)"/>
<path d="M104.13 47.8928C104.309 47.5419 104.563 47.2694 104.892 47.0752C105.228 46.8811 105.635 46.784 106.112 46.784V47.8368H105.844C104.701 47.8368 104.13 48.4566 104.13 49.696V53.0336H103.111V46.896H104.13V47.8928Z" fill="url(#paint16_linear_8190_3775)"/>
<path d="M114.009 49.7296C114.009 49.9238 113.998 50.1291 113.975 50.3456H109.07C109.107 50.9504 109.312 51.4246 109.686 51.768C110.067 52.104 110.526 52.272 111.063 52.272C111.504 52.272 111.87 52.1712 112.161 51.9696C112.46 51.7606 112.669 51.4843 112.788 51.1408H113.886C113.721 51.7307 113.393 52.2123 112.9 52.5856C112.407 52.9515 111.795 53.1344 111.063 53.1344C110.481 53.1344 109.958 53.0037 109.495 52.7424C109.04 52.4811 108.681 52.1115 108.42 51.6336C108.159 51.1483 108.028 50.5883 108.028 49.9536C108.028 49.319 108.155 48.7627 108.409 48.2848C108.663 47.8069 109.017 47.4411 109.473 47.1872C109.936 46.9259 110.466 46.7952 111.063 46.7952C111.646 46.7952 112.161 46.9221 112.609 47.176C113.057 47.4299 113.4 47.7808 113.639 48.2288C113.886 48.6694 114.009 49.1696 114.009 49.7296ZM112.956 49.5168C112.956 49.1286 112.87 48.7963 112.699 48.52C112.527 48.2363 112.292 48.0235 111.993 47.8816C111.702 47.7323 111.377 47.6576 111.019 47.6576C110.503 47.6576 110.063 47.8219 109.697 48.1504C109.339 48.479 109.133 48.9344 109.081 49.5168H112.956Z" fill="url(#paint17_linear_8190_3775)"/>
<path d="M125.385 45.2272V46.056H123.257V53.0336H122.238V46.056H120.099V45.2272H125.385Z" fill="url(#paint18_linear_8190_3775)"/>
<path d="M128.779 47.8928C128.958 47.5419 129.212 47.2694 129.54 47.0752C129.876 46.8811 130.283 46.784 130.761 46.784V47.8368H130.492C129.35 47.8368 128.779 48.4566 128.779 49.696V53.0336H127.76V46.896H128.779V47.8928Z" fill="url(#paint19_linear_8190_3775)"/>
<path d="M132.677 49.9424C132.677 49.3152 132.804 48.7664 133.058 48.296C133.312 47.8181 133.659 47.4486 134.099 47.1872C134.547 46.9259 135.044 46.7952 135.589 46.7952C136.126 46.7952 136.593 46.9109 136.989 47.1424C137.385 47.3739 137.68 47.6651 137.874 48.016V46.896H138.904V53.0336H137.874V51.8912C137.672 52.2496 137.37 52.5483 136.966 52.7872C136.571 53.0187 136.108 53.1344 135.578 53.1344C135.033 53.1344 134.54 53 134.099 52.7312C133.659 52.4624 133.312 52.0854 133.058 51.6C132.804 51.1147 132.677 50.5621 132.677 49.9424ZM137.874 49.9536C137.874 49.4907 137.78 49.0875 137.594 48.744C137.407 48.4006 137.153 48.1392 136.832 47.96C136.518 47.7733 136.171 47.68 135.79 47.68C135.41 47.68 135.062 47.7696 134.749 47.9488C134.435 48.128 134.185 48.3894 133.998 48.7328C133.812 49.0763 133.718 49.4795 133.718 49.9424C133.718 50.4128 133.812 50.8235 133.998 51.1744C134.185 51.5179 134.435 51.783 134.749 51.9696C135.062 52.1488 135.41 52.2384 135.79 52.2384C136.171 52.2384 136.518 52.1488 136.832 51.9696C137.153 51.783 137.407 51.5179 137.594 51.1744C137.78 50.8235 137.874 50.4165 137.874 49.9536Z" fill="url(#paint20_linear_8190_3775)"/>
<path d="M144.737 46.784C145.483 46.784 146.088 47.0118 146.551 47.4672C147.014 47.9152 147.246 48.5648 147.246 49.416V53.0336H146.238V49.5616C146.238 48.9494 146.085 48.4827 145.778 48.1616C145.472 47.8331 145.054 47.6688 144.524 47.6688C143.986 47.6688 143.557 47.8368 143.236 48.1728C142.922 48.5088 142.766 48.9979 142.766 49.64V53.0336H141.746V46.896H142.766V47.7696C142.967 47.456 143.24 47.2134 143.583 47.0416C143.934 46.8699 144.319 46.784 144.737 46.784Z" fill="url(#paint21_linear_8190_3775)"/>
<path d="M152.203 53.1344C151.733 53.1344 151.311 53.056 150.938 52.8992C150.564 52.735 150.269 52.5109 150.053 52.2272C149.836 51.936 149.717 51.6038 149.694 51.2304H150.747C150.777 51.5366 150.919 51.7867 151.173 51.9808C151.434 52.1749 151.774 52.272 152.192 52.272C152.58 52.272 152.886 52.1861 153.11 52.0144C153.334 51.8427 153.446 51.6262 153.446 51.3648C153.446 51.096 153.327 50.8982 153.088 50.7712C152.849 50.6368 152.48 50.5062 151.979 50.3792C151.524 50.2598 151.15 50.1403 150.859 50.0208C150.576 49.8939 150.329 49.7109 150.12 49.472C149.918 49.2256 149.818 48.9045 149.818 48.5088C149.818 48.1952 149.911 47.9078 150.098 47.6464C150.284 47.3851 150.549 47.1798 150.893 47.0304C151.236 46.8736 151.628 46.7952 152.069 46.7952C152.748 46.7952 153.297 46.9669 153.715 47.3104C154.133 47.6539 154.357 48.1243 154.387 48.7216H153.368C153.346 48.4006 153.215 48.1429 152.976 47.9488C152.745 47.7547 152.431 47.6576 152.035 47.6576C151.669 47.6576 151.378 47.736 151.162 47.8928C150.945 48.0496 150.837 48.255 150.837 48.5088C150.837 48.7104 150.9 48.8784 151.027 49.0128C151.162 49.1398 151.326 49.2443 151.52 49.3264C151.722 49.4011 151.998 49.487 152.349 49.584C152.789 49.7035 153.148 49.823 153.424 49.9424C153.7 50.0544 153.936 50.2262 154.13 50.4576C154.331 50.6891 154.436 50.9915 154.443 51.3648C154.443 51.7008 154.35 52.0032 154.163 52.272C153.977 52.5408 153.712 52.7536 153.368 52.9104C153.032 53.0597 152.644 53.1344 152.203 53.1344Z" fill="url(#paint22_linear_8190_3775)"/>
<path d="M158.021 48.0272C158.223 47.6763 158.521 47.3851 158.917 47.1536C159.32 46.9147 159.787 46.7952 160.317 46.7952C160.862 46.7952 161.355 46.9259 161.796 47.1872C162.244 47.4486 162.595 47.8181 162.848 48.296C163.102 48.7664 163.229 49.3152 163.229 49.9424C163.229 50.5621 163.102 51.1147 162.848 51.6C162.595 52.0854 162.244 52.4624 161.796 52.7312C161.355 53 160.862 53.1344 160.317 53.1344C159.795 53.1344 159.332 53.0187 158.928 52.7872C158.533 52.5483 158.23 52.2534 158.021 51.9024V55.9456H157.002V46.896H158.021V48.0272ZM162.188 49.9424C162.188 49.4795 162.094 49.0763 161.908 48.7328C161.721 48.3894 161.467 48.128 161.146 47.9488C160.832 47.7696 160.485 47.68 160.104 47.68C159.731 47.68 159.384 47.7733 159.063 47.96C158.749 48.1392 158.495 48.4043 158.301 48.7552C158.115 49.0987 158.021 49.4981 158.021 49.9536C158.021 50.4165 158.115 50.8235 158.301 51.1744C158.495 51.5179 158.749 51.783 159.063 51.9696C159.384 52.1488 159.731 52.2384 160.104 52.2384C160.485 52.2384 160.832 52.1488 161.146 51.9696C161.467 51.783 161.721 51.5179 161.908 51.1744C162.094 50.8235 162.188 50.4128 162.188 49.9424Z" fill="url(#paint23_linear_8190_3775)"/>
<path d="M168.368 53.1344C167.793 53.1344 167.27 53.0037 166.8 52.7424C166.337 52.4811 165.971 52.1115 165.702 51.6336C165.441 51.1483 165.31 50.5883 165.31 49.9536C165.31 49.3264 165.444 48.7739 165.713 48.296C165.989 47.8107 166.363 47.4411 166.833 47.1872C167.304 46.9259 167.83 46.7952 168.412 46.7952C168.995 46.7952 169.521 46.9259 169.992 47.1872C170.462 47.4411 170.832 47.8069 171.1 48.2848C171.377 48.7627 171.515 49.319 171.515 49.9536C171.515 50.5883 171.373 51.1483 171.089 51.6336C170.813 52.1115 170.436 52.4811 169.958 52.7424C169.48 53.0037 168.95 53.1344 168.368 53.1344ZM168.368 52.2384C168.733 52.2384 169.077 52.1525 169.398 51.9808C169.719 51.8091 169.977 51.5515 170.171 51.208C170.372 50.8646 170.473 50.4464 170.473 49.9536C170.473 49.4608 170.376 49.0427 170.182 48.6992C169.988 48.3558 169.734 48.1019 169.42 47.9376C169.107 47.7659 168.767 47.68 168.401 47.68C168.028 47.68 167.684 47.7659 167.371 47.9376C167.065 48.1019 166.818 48.3558 166.632 48.6992C166.445 49.0427 166.352 49.4608 166.352 49.9536C166.352 50.4539 166.441 50.8758 166.62 51.2192C166.807 51.5627 167.053 51.8203 167.36 51.992C167.666 52.1563 168.002 52.2384 168.368 52.2384Z" fill="url(#paint24_linear_8190_3775)"/>
<path d="M174.994 47.8928C175.173 47.5419 175.427 47.2694 175.756 47.0752C176.092 46.8811 176.499 46.784 176.976 46.784V47.8368H176.708C175.565 47.8368 174.994 48.4566 174.994 49.696V53.0336H173.975V46.896H174.994V47.8928Z" fill="url(#paint25_linear_8190_3775)"/>
<path d="M180.516 47.736V51.3536C180.516 51.6523 180.58 51.8651 180.707 51.992C180.834 52.1115 181.054 52.1712 181.367 52.1712H182.118V53.0336H181.199C180.632 53.0336 180.206 52.903 179.923 52.6416C179.639 52.3803 179.497 51.951 179.497 51.3536V47.736H178.702V46.896H179.497V45.3504H180.516V46.896H182.118V47.736H180.516Z" fill="url(#paint26_linear_8190_3775)"/>
<path d="M184.092 49.9424C184.092 49.3152 184.219 48.7664 184.473 48.296C184.727 47.8181 185.074 47.4486 185.514 47.1872C185.962 46.9259 186.459 46.7952 187.004 46.7952C187.541 46.7952 188.008 46.9109 188.404 47.1424C188.8 47.3739 189.095 47.6651 189.289 48.016V46.896H190.319V53.0336H189.289V51.8912C189.087 52.2496 188.785 52.5483 188.381 52.7872C187.986 53.0187 187.523 53.1344 186.993 53.1344C186.448 53.1344 185.955 53 185.514 52.7312C185.074 52.4624 184.727 52.0854 184.473 51.6C184.219 51.1147 184.092 50.5621 184.092 49.9424ZM189.289 49.9536C189.289 49.4907 189.195 49.0875 189.009 48.744C188.822 48.4006 188.568 48.1392 188.247 47.96C187.933 47.7733 187.586 47.68 187.205 47.68C186.825 47.68 186.477 47.7696 186.164 47.9488C185.85 48.128 185.6 48.3894 185.413 48.7328C185.227 49.0763 185.133 49.4795 185.133 49.9424C185.133 50.4128 185.227 50.8235 185.413 51.1744C185.6 51.5179 185.85 51.783 186.164 51.9696C186.477 52.1488 186.825 52.2384 187.205 52.2384C187.586 52.2384 187.933 52.1488 188.247 51.9696C188.568 51.783 188.822 51.5179 189.009 51.1744C189.195 50.8235 189.289 50.4165 189.289 49.9536Z" fill="url(#paint27_linear_8190_3775)"/>
<path d="M194.405 47.736V51.3536C194.405 51.6523 194.468 51.8651 194.595 51.992C194.722 52.1115 194.942 52.1712 195.256 52.1712H196.006V53.0336H195.088C194.52 53.0336 194.095 52.903 193.811 52.6416C193.527 52.3803 193.385 51.951 193.385 51.3536V47.736H192.59V46.896H193.385V45.3504H194.405V46.896H196.006V47.736H194.405Z" fill="url(#paint28_linear_8190_3775)"/>
<path d="M198.887 45.8992C198.693 45.8992 198.529 45.832 198.395 45.6976C198.26 45.5632 198.193 45.3989 198.193 45.2048C198.193 45.0107 198.26 44.8464 198.395 44.712C198.529 44.5776 198.693 44.5104 198.887 44.5104C199.074 44.5104 199.231 44.5776 199.358 44.712C199.492 44.8464 199.559 45.0107 199.559 45.2048C199.559 45.3989 199.492 45.5632 199.358 45.6976C199.231 45.832 199.074 45.8992 198.887 45.8992ZM199.38 46.896V53.0336H198.361V46.896H199.38Z" fill="url(#paint29_linear_8190_3775)"/>
<path d="M204.914 53.1344C204.339 53.1344 203.817 53.0037 203.346 52.7424C202.883 52.4811 202.517 52.1115 202.249 51.6336C201.987 51.1483 201.857 50.5883 201.857 49.9536C201.857 49.3264 201.991 48.7739 202.26 48.296C202.536 47.8107 202.909 47.4411 203.38 47.1872C203.85 46.9259 204.377 46.7952 204.959 46.7952C205.541 46.7952 206.068 46.9259 206.538 47.1872C207.009 47.4411 207.378 47.8069 207.647 48.2848C207.923 48.7627 208.061 49.319 208.061 49.9536C208.061 50.5883 207.919 51.1483 207.636 51.6336C207.359 52.1115 206.982 52.4811 206.505 52.7424C206.027 53.0037 205.497 53.1344 204.914 53.1344ZM204.914 52.2384C205.28 52.2384 205.623 52.1525 205.945 51.9808C206.266 51.8091 206.523 51.5515 206.717 51.208C206.919 50.8646 207.02 50.4464 207.02 49.9536C207.02 49.4608 206.923 49.0427 206.729 48.6992C206.534 48.3558 206.281 48.1019 205.967 47.9376C205.653 47.7659 205.314 47.68 204.948 47.68C204.574 47.68 204.231 47.7659 203.917 47.9376C203.611 48.1019 203.365 48.3558 203.178 48.6992C202.991 49.0427 202.898 49.4608 202.898 49.9536C202.898 50.4539 202.988 50.8758 203.167 51.2192C203.354 51.5627 203.6 51.8203 203.906 51.992C204.212 52.1563 204.548 52.2384 204.914 52.2384Z" fill="url(#paint30_linear_8190_3775)"/>
<path d="M213.512 46.784C214.258 46.784 214.863 47.0118 215.326 47.4672C215.789 47.9152 216.021 48.5648 216.021 49.416V53.0336H215.013V49.5616C215.013 48.9494 214.86 48.4827 214.553 48.1616C214.247 47.8331 213.829 47.6688 213.299 47.6688C212.761 47.6688 212.332 47.8368 212.011 48.1728C211.697 48.5088 211.541 48.9979 211.541 49.64V53.0336H210.521V46.896H211.541V47.7696C211.742 47.456 212.015 47.2134 212.358 47.0416C212.709 46.8699 213.094 46.784 213.512 46.784Z" fill="url(#paint31_linear_8190_3775)"/>
</g>
<defs>
<filter id="filter0_f_8190_3775" x="13.6188" y="18.3066" width="33.9725" height="37.7239" filterUnits="userSpaceOnUse" color-interpolation-filters="sRGB">
<feFlood flood-opacity="0" result="BackgroundImageFix"/>
<feBlend mode="normal" in="SourceGraphic" in2="BackgroundImageFix" result="shape"/>
<feGaussianBlur stdDeviation="6.25" result="effect1_foregroundBlur_8190_3775"/>
</filter>
<filter id="filter1_f_8190_3775" x="32.4409" y="18.3066" width="33.9725" height="37.7239" filterUnits="userSpaceOnUse" color-interpolation-filters="sRGB">
<feFlood flood-opacity="0" result="BackgroundImageFix"/>
<feBlend mode="normal" in="SourceGraphic" in2="BackgroundImageFix" result="shape"/>
<feGaussianBlur stdDeviation="6.25" result="effect1_foregroundBlur_8190_3775"/>
</filter>
<filter id="filter2_dd_8190_3775" x="62.5792" y="8.05441" width="165.441" height="71.8912" filterUnits="userSpaceOnUse" color-interpolation-filters="sRGB">
<feFlood flood-opacity="0" result="BackgroundImageFix"/>
<feColorMatrix in="SourceAlpha" type="matrix" values="0 0 0 0 0 0 0 0 0 0 0 0 0 0 0 0 0 0 127 0" result="hardAlpha"/>
<feMorphology radius="2" operator="erode" in="SourceAlpha" result="effect1_dropShadow_8190_3775"/>
<feOffset dy="4"/>
<feGaussianBlur stdDeviation="3"/>
<feColorMatrix type="matrix" values="0 0 0 0 0.0627451 0 0 0 0 0.0941176 0 0 0 0 0.156863 0 0 0 0.03 0"/>
<feBlend mode="normal" in2="BackgroundImageFix" result="effect1_dropShadow_8190_3775"/>
<feColorMatrix in="SourceAlpha" type="matrix" values="0 0 0 0 0 0 0 0 0 0 0 0 0 0 0 0 0 0 127 0" result="hardAlpha"/>
<feMorphology radius="4" operator="erode" in="SourceAlpha" result="effect2_dropShadow_8190_3775"/>
<feOffset dy="12"/>
<feGaussianBlur stdDeviation="8"/>
<feColorMatrix type="matrix" values="0 0 0 0 0.0627451 0 0 0 0 0.0941176 0 0 0 0 0.156863 0 0 0 0.08 0"/>
<feBlend mode="normal" in2="effect1_dropShadow_8190_3775" result="effect2_dropShadow_8190_3775"/>
<feBlend mode="normal" in="SourceGraphic" in2="effect2_dropShadow_8190_3775" result="shape"/>
</filter>
<linearGradient id="paint0_linear_8190_3775" x1="-13.4122" y1="69.6075" x2="107.55" y2="-67.6735" gradientUnits="userSpaceOnUse">
<stop stop-color="#01C2FF"/>
<stop offset="0.306988" stop-color="#437CE9"/>
<stop offset="0.64854" stop-color="#C9A3FF"/>
</linearGradient>
<linearGradient id="paint1_linear_8190_3775" x1="23.9437" y1="16.8711" x2="23.9446" y2="43.5305" gradientUnits="userSpaceOnUse">
<stop stop-color="#6CE3A3"/>
<stop offset="1" stop-color="#7597D6"/>
</linearGradient>
<linearGradient id="paint2_linear_8190_3775" x1="42.7659" y1="16.8711" x2="42.7668" y2="43.5305" gradientUnits="userSpaceOnUse">
<stop stop-color="#6CE3A3"/>
<stop offset="1" stop-color="#7597D6"/>
</linearGradient>
<linearGradient id="paint3_linear_8190_3775" x1="42.7737" y1="60.1417" x2="92.7667" y2="-107.426" gradientUnits="userSpaceOnUse">
<stop stop-color="#01C2FF"/>
<stop offset="0.306988" stop-color="#437CE9"/>
<stop offset="0.64854" stop-color="#C9A3FF"/>
</linearGradient>
<linearGradient id="paint4_linear_8190_3775" x1="42.7737" y1="60.1417" x2="92.7667" y2="-107.426" gradientUnits="userSpaceOnUse">
<stop stop-color="#01C2FF"/>
<stop offset="0.306988" stop-color="#437CE9"/>
<stop offset="0.64854" stop-color="#C9A3FF"/>
</linearGradient>
<linearGradient id="paint5_linear_8190_3775" x1="42.7737" y1="60.1417" x2="92.7667" y2="-107.426" gradientUnits="userSpaceOnUse">
<stop stop-color="#01C2FF"/>
<stop offset="0.306988" stop-color="#437CE9"/>
<stop offset="0.64854" stop-color="#C9A3FF"/>
</linearGradient>
<linearGradient id="paint6_linear_8190_3775" x1="42.7737" y1="60.1417" x2="92.7667" y2="-107.426" gradientUnits="userSpaceOnUse">
<stop stop-color="#01C2FF"/>
<stop offset="0.306988" stop-color="#437CE9"/>
<stop offset="0.64854" stop-color="#C9A3FF"/>
</linearGradient>
<linearGradient id="paint7_linear_8190_3775" x1="42.7737" y1="60.1417" x2="92.7667" y2="-107.426" gradientUnits="userSpaceOnUse">
<stop stop-color="#01C2FF"/>
<stop offset="0.306988" stop-color="#437CE9"/>
<stop offset="0.64854" stop-color="#C9A3FF"/>
</linearGradient>
<linearGradient id="paint8_linear_8190_3775" x1="42.7737" y1="60.1417" x2="92.7667" y2="-107.426" gradientUnits="userSpaceOnUse">
<stop stop-color="#01C2FF"/>
<stop offset="0.306988" stop-color="#437CE9"/>
<stop offset="0.64854" stop-color="#C9A3FF"/>
</linearGradient>
<linearGradient id="paint9_linear_8190_3775" x1="42.7737" y1="60.1417" x2="92.7667" y2="-107.426" gradientUnits="userSpaceOnUse">
<stop stop-color="#01C2FF"/>
<stop offset="0.306988" stop-color="#437CE9"/>
<stop offset="0.64854" stop-color="#C9A3FF"/>
</linearGradient>
<linearGradient id="paint10_linear_8190_3775" x1="42.7737" y1="60.1417" x2="92.7667" y2="-107.426" gradientUnits="userSpaceOnUse">
<stop stop-color="#01C2FF"/>
<stop offset="0.306988" stop-color="#437CE9"/>
<stop offset="0.64854" stop-color="#C9A3FF"/>
</linearGradient>
<linearGradient id="paint11_linear_8190_3775" x1="42.7737" y1="60.1417" x2="92.7667" y2="-107.426" gradientUnits="userSpaceOnUse">
<stop stop-color="#01C2FF"/>
<stop offset="0.306988" stop-color="#437CE9"/>
<stop offset="0.64854" stop-color="#C9A3FF"/>
</linearGradient>
<linearGradient id="paint12_linear_8190_3775" x1="42.7737" y1="60.1417" x2="92.7667" y2="-107.426" gradientUnits="userSpaceOnUse">
<stop stop-color="#01C2FF"/>
<stop offset="0.306988" stop-color="#437CE9"/>
<stop offset="0.64854" stop-color="#C9A3FF"/>
</linearGradient>
<linearGradient id="paint13_linear_8190_3775" x1="42.7737" y1="60.1417" x2="92.7667" y2="-107.426" gradientUnits="userSpaceOnUse">
<stop stop-color="#01C2FF"/>
<stop offset="0.306988" stop-color="#437CE9"/>
<stop offset="0.64854" stop-color="#C9A3FF"/>
</linearGradient>
<linearGradient id="paint14_linear_8190_3775" x1="42.7737" y1="60.1417" x2="92.7667" y2="-107.426" gradientUnits="userSpaceOnUse">
<stop stop-color="#01C2FF"/>
<stop offset="0.306988" stop-color="#437CE9"/>
<stop offset="0.64854" stop-color="#C9A3FF"/>
</linearGradient>
<linearGradient id="paint15_linear_8190_3775" x1="42.7737" y1="60.1417" x2="92.7667" y2="-107.426" gradientUnits="userSpaceOnUse">
<stop stop-color="#01C2FF"/>
<stop offset="0.306988" stop-color="#437CE9"/>
<stop offset="0.64854" stop-color="#C9A3FF"/>
</linearGradient>
<linearGradient id="paint16_linear_8190_3775" x1="42.7737" y1="60.1417" x2="92.7667" y2="-107.426" gradientUnits="userSpaceOnUse">
<stop stop-color="#01C2FF"/>
<stop offset="0.306988" stop-color="#437CE9"/>
<stop offset="0.64854" stop-color="#C9A3FF"/>
</linearGradient>
<linearGradient id="paint17_linear_8190_3775" x1="42.7737" y1="60.1417" x2="92.7667" y2="-107.426" gradientUnits="userSpaceOnUse">
<stop stop-color="#01C2FF"/>
<stop offset="0.306988" stop-color="#437CE9"/>
<stop offset="0.64854" stop-color="#C9A3FF"/>
</linearGradient>
<linearGradient id="paint18_linear_8190_3775" x1="42.7737" y1="60.1417" x2="92.7667" y2="-107.426" gradientUnits="userSpaceOnUse">
<stop stop-color="#01C2FF"/>
<stop offset="0.306988" stop-color="#437CE9"/>
<stop offset="0.64854" stop-color="#C9A3FF"/>
</linearGradient>
<linearGradient id="paint19_linear_8190_3775" x1="42.7737" y1="60.1417" x2="92.7667" y2="-107.426" gradientUnits="userSpaceOnUse">
<stop stop-color="#01C2FF"/>
<stop offset="0.306988" stop-color="#437CE9"/>
<stop offset="0.64854" stop-color="#C9A3FF"/>
</linearGradient>
<linearGradient id="paint20_linear_8190_3775" x1="42.7737" y1="60.1417" x2="92.7667" y2="-107.426" gradientUnits="userSpaceOnUse">
<stop stop-color="#01C2FF"/>
<stop offset="0.306988" stop-color="#437CE9"/>
<stop offset="0.64854" stop-color="#C9A3FF"/>
</linearGradient>
<linearGradient id="paint21_linear_8190_3775" x1="42.7737" y1="60.1417" x2="92.7667" y2="-107.426" gradientUnits="userSpaceOnUse">
<stop stop-color="#01C2FF"/>
<stop offset="0.306988" stop-color="#437CE9"/>
<stop offset="0.64854" stop-color="#C9A3FF"/>
</linearGradient>
<linearGradient id="paint22_linear_8190_3775" x1="42.7737" y1="60.1417" x2="92.7667" y2="-107.426" gradientUnits="userSpaceOnUse">
<stop stop-color="#01C2FF"/>
<stop offset="0.306988" stop-color="#437CE9"/>
<stop offset="0.64854" stop-color="#C9A3FF"/>
</linearGradient>
<linearGradient id="paint23_linear_8190_3775" x1="42.7737" y1="60.1417" x2="92.7667" y2="-107.426" gradientUnits="userSpaceOnUse">
<stop stop-color="#01C2FF"/>
<stop offset="0.306988" stop-color="#437CE9"/>
<stop offset="0.64854" stop-color="#C9A3FF"/>
</linearGradient>
<linearGradient id="paint24_linear_8190_3775" x1="42.7737" y1="60.1417" x2="92.7667" y2="-107.426" gradientUnits="userSpaceOnUse">
<stop stop-color="#01C2FF"/>
<stop offset="0.306988" stop-color="#437CE9"/>
<stop offset="0.64854" stop-color="#C9A3FF"/>
</linearGradient>
<linearGradient id="paint25_linear_8190_3775" x1="42.7737" y1="60.1417" x2="92.7667" y2="-107.426" gradientUnits="userSpaceOnUse">
<stop stop-color="#01C2FF"/>
<stop offset="0.306988" stop-color="#437CE9"/>
<stop offset="0.64854" stop-color="#C9A3FF"/>
</linearGradient>
<linearGradient id="paint26_linear_8190_3775" x1="42.7737" y1="60.1417" x2="92.7667" y2="-107.426" gradientUnits="userSpaceOnUse">
<stop stop-color="#01C2FF"/>
<stop offset="0.306988" stop-color="#437CE9"/>
<stop offset="0.64854" stop-color="#C9A3FF"/>
</linearGradient>
<linearGradient id="paint27_linear_8190_3775" x1="42.7737" y1="60.1417" x2="92.7667" y2="-107.426" gradientUnits="userSpaceOnUse">
<stop stop-color="#01C2FF"/>
<stop offset="0.306988" stop-color="#437CE9"/>
<stop offset="0.64854" stop-color="#C9A3FF"/>
</linearGradient>
<linearGradient id="paint28_linear_8190_3775" x1="42.7737" y1="60.1417" x2="92.7667" y2="-107.426" gradientUnits="userSpaceOnUse">
<stop stop-color="#01C2FF"/>
<stop offset="0.306988" stop-color="#437CE9"/>
<stop offset="0.64854" stop-color="#C9A3FF"/>
</linearGradient>
<linearGradient id="paint29_linear_8190_3775" x1="42.7737" y1="60.1417" x2="92.7667" y2="-107.426" gradientUnits="userSpaceOnUse">
<stop stop-color="#01C2FF"/>
<stop offset="0.306988" stop-color="#437CE9"/>
<stop offset="0.64854" stop-color="#C9A3FF"/>
</linearGradient>
<linearGradient id="paint30_linear_8190_3775" x1="42.7737" y1="60.1417" x2="92.7667" y2="-107.426" gradientUnits="userSpaceOnUse">
<stop stop-color="#01C2FF"/>
<stop offset="0.306988" stop-color="#437CE9"/>
<stop offset="0.64854" stop-color="#C9A3FF"/>
</linearGradient>
<linearGradient id="paint31_linear_8190_3775" x1="42.7737" y1="60.1417" x2="92.7667" y2="-107.426" gradientUnits="userSpaceOnUse">
<stop stop-color="#01C2FF"/>
<stop offset="0.306988" stop-color="#437CE9"/>
<stop offset="0.64854" stop-color="#C9A3FF"/>
</linearGradient>
</defs>
</svg>
